<svg width="21" height="20" viewBox="0 0 21 20" fill="none" xmlns="http://www.w3.org/2000/svg">
<path d="M10.171 0.21875C15.6303 0.21875 20.0611 4.64956 20.0611 10.1089C20.0611 15.5683 15.6303 19.9991 10.171 19.9991C4.71157 19.9991 0.280762 15.5683 0.280762 10.1089C0.280762 4.64956 4.71157 0.21875 10.171 0.21875ZM10.171 2.19679C5.79949 2.19679 2.2588 5.73748 2.2588 10.1089C2.2588 14.4804 5.79949 18.0211 10.171 18.0211C14.5424 18.0211 18.0831 14.4804 18.0831 10.1089C18.0831 5.73748 14.5424 2.19679 10.171 2.19679ZM10.171 5.16385C11.971 5.16385 13.5465 6.12616 14.4119 7.56518L12.7167 8.58288C12.4499 8.13807 12.0712 7.77095 11.6183 7.51815C11.1654 7.26535 10.6541 7.13569 10.1355 7.14211C9.61682 7.14853 9.10892 7.29079 8.6624 7.55472C8.21589 7.81865 7.84636 8.19502 7.59067 8.6463C7.33498 9.09758 7.20206 9.60801 7.20516 10.1267C7.20827 10.6454 7.34728 11.1542 7.60835 11.6024C7.86942 12.0505 8.24342 12.4225 8.69306 12.681C9.1427 12.9396 9.65227 13.0758 10.171 13.076C10.6834 13.0763 11.1872 12.9439 11.6332 12.6915C12.0792 12.4391 12.4521 12.0754 12.7157 11.636L14.4119 12.6527C13.8561 13.581 13.0111 14.3014 12.0065 14.7033C11.0019 15.1052 9.89326 15.1665 8.85051 14.8777C7.80777 14.589 6.88854 13.9661 6.2338 13.1047C5.57907 12.2433 5.22498 11.1909 5.22586 10.1089C5.22586 7.37925 7.44126 5.16385 10.171 5.16385Z" fill="#CDCDCD"/>
</svg>
