<svg width="251" height="43" viewBox="0 0 251 43" fill="none" xmlns="http://www.w3.org/2000/svg">
<path d="M36.542 42V10.158L22.854 34.576H19.896L6.15 10.158V42H0.93V0.819998H6.44L21.346 27.558L36.31 0.819998H41.762V42H36.542ZM64.1514 0.819998H68.5594L85.3794 42H79.8114L74.9394 29.936H57.6554L52.8414 42H47.2734L64.1514 0.819998ZM73.7794 25.876L66.3554 6.852L58.6994 25.876H73.7794ZM90.8753 42V0.819998H108.507C110.325 0.819998 111.987 1.20666 113.495 1.98C115.042 2.71467 116.357 3.72 117.439 4.996C118.561 6.23333 119.431 7.64467 120.049 9.23C120.668 10.7767 120.977 12.362 120.977 13.986C120.977 15.4167 120.765 16.8087 120.339 18.162C119.953 19.4767 119.373 20.6753 118.599 21.758C117.865 22.8407 116.956 23.7687 115.873 24.542C114.829 25.3153 113.65 25.876 112.335 26.224L122.311 42H116.395L106.999 27.21H96.0953V42H90.8753ZM96.0953 22.57H108.565C109.648 22.57 110.615 22.338 111.465 21.874C112.355 21.41 113.109 20.7913 113.727 20.018C114.346 19.206 114.829 18.278 115.177 17.234C115.525 16.19 115.699 15.1073 115.699 13.986C115.699 12.826 115.487 11.7433 115.061 10.738C114.675 9.694 114.133 8.78533 113.437 8.012C112.78 7.2 111.987 6.58133 111.059 6.156C110.17 5.692 109.223 5.46 108.217 5.46H96.0953V22.57ZM145.698 42.29C142.798 42.29 140.15 41.71 137.752 40.55C135.394 39.3513 133.364 37.7853 131.662 35.852C129.961 33.88 128.646 31.6373 127.718 29.124C126.79 26.6107 126.326 24.0393 126.326 21.41C126.326 18.6647 126.81 16.0353 127.776 13.522C128.782 11.0087 130.154 8.78533 131.894 6.852C133.634 4.91867 135.684 3.39133 138.042 2.27C140.44 1.11 143.03 0.529998 145.814 0.529998C148.714 0.529998 151.344 1.14866 153.702 2.386C156.061 3.58467 158.091 5.17 159.792 7.142C161.494 9.114 162.808 11.3567 163.736 13.87C164.664 16.3447 165.128 18.8773 165.128 21.468C165.128 24.2133 164.626 26.8427 163.62 29.356C162.654 31.8693 161.3 34.0927 159.56 36.026C157.859 37.9207 155.81 39.448 153.412 40.608C151.054 41.7293 148.482 42.29 145.698 42.29ZM131.604 21.41C131.604 23.498 131.933 25.528 132.59 27.5C133.286 29.4333 134.253 31.154 135.49 32.662C136.728 34.17 138.216 35.3687 139.956 36.258C141.696 37.1473 143.63 37.592 145.756 37.592C147.96 37.592 149.932 37.128 151.672 36.2C153.412 35.2333 154.882 33.996 156.08 32.488C157.318 30.9413 158.246 29.2013 158.864 27.268C159.522 25.3347 159.85 23.382 159.85 21.41C159.85 19.322 159.502 17.3113 158.806 15.378C158.149 13.406 157.182 11.6853 155.906 10.216C154.669 8.708 153.18 7.50933 151.44 6.62C149.739 5.73067 147.844 5.286 145.756 5.286C143.552 5.286 141.58 5.75 139.84 6.678C138.1 7.606 136.612 8.824 135.374 10.332C134.176 11.84 133.248 13.5607 132.59 15.494C131.933 17.4273 131.604 19.3993 131.604 21.41ZM189.085 42.29C186.185 42.29 183.537 41.71 181.139 40.55C178.781 39.3513 176.751 37.7853 175.049 35.852C173.348 33.88 172.033 31.6373 171.105 29.124C170.177 26.6107 169.713 24.0393 169.713 21.41C169.713 18.6647 170.197 16.0353 171.163 13.522C172.169 11.0087 173.541 8.78533 175.281 6.852C177.021 4.91867 179.071 3.39133 181.429 2.27C183.827 1.11 186.417 0.529998 189.201 0.529998C192.101 0.529998 194.731 1.14866 197.089 2.386C199.448 3.58467 201.478 5.17 203.179 7.142C204.881 9.114 206.195 11.3567 207.123 13.87C208.051 16.3447 208.515 18.8773 208.515 21.468C208.515 24.2133 208.013 26.8427 207.007 29.356C206.041 31.8693 204.687 34.0927 202.947 36.026C201.246 37.9207 199.197 39.448 196.799 40.608C194.441 41.7293 191.869 42.29 189.085 42.29ZM174.991 21.41C174.991 23.498 175.32 25.528 175.977 27.5C176.673 29.4333 177.64 31.154 178.877 32.662C180.115 34.17 181.603 35.3687 183.343 36.258C185.083 37.1473 187.017 37.592 189.143 37.592C191.347 37.592 193.319 37.128 195.059 36.2C196.799 35.2333 198.269 33.996 199.467 32.488C200.705 30.9413 201.633 29.2013 202.251 27.268C202.909 25.3347 203.237 23.382 203.237 21.41C203.237 19.322 202.889 17.3113 202.193 15.378C201.536 13.406 200.569 11.6853 199.293 10.216C198.056 8.708 196.567 7.50933 194.827 6.62C193.126 5.73067 191.231 5.286 189.143 5.286C186.939 5.286 184.967 5.75 183.227 6.678C181.487 7.606 179.999 8.824 178.761 10.332C177.563 11.84 176.635 13.5607 175.977 15.494C175.32 17.4273 174.991 19.3993 174.991 21.41ZM220.988 10.564V42H215.768V0.819998H219.828L245.348 32.894V0.877997H250.568V42H246.16L220.988 10.564Z" fill="#122947"/>
</svg>
