<svg width="189" height="42" viewBox="0 0 189 42" fill="none" xmlns="http://www.w3.org/2000/svg">
<path d="M24.8722 4.36C25.3522 4.936 25.6882 5.4 25.8802 5.752C26.0722 6.104 26.1682 6.44 26.1682 6.76C26.1682 7.144 25.9122 7.592 25.4002 8.104C24.9202 8.616 24.4402 8.872 23.9602 8.872C23.3202 8.872 22.8082 8.776 22.4242 8.584C22.0402 8.392 21.7202 8.088 21.4642 7.672C20.9522 6.904 20.3282 6.248 19.5922 5.704C18.8562 5.128 17.7042 4.84 16.1362 4.84C14.7922 4.84 13.2562 5.144 11.5282 5.752C9.83219 6.36 8.61619 7.112 7.88019 8.008C7.24019 8.808 6.68019 10.024 6.20019 11.656C5.75219 13.288 5.52819 14.872 5.52819 16.408C5.52819 18.264 5.92819 19.976 6.72819 21.544C7.56019 23.08 8.74419 24.312 10.2802 25.24C11.8482 26.168 13.7202 26.632 15.8962 26.632C17.0802 26.632 18.2962 26.408 19.5442 25.96C20.8242 25.48 21.9282 24.712 22.8562 23.656H22.8082C23.3842 23.048 24.1042 22.744 24.9682 22.744C25.4802 22.744 25.9602 22.968 26.4082 23.416C26.8882 23.864 27.1282 24.312 27.1282 24.76C27.1282 25.24 27.0482 25.672 26.8882 26.056C26.7602 26.408 26.5042 26.808 26.1202 27.256C24.8082 28.728 23.2562 29.736 21.4642 30.28C19.6722 30.824 17.5282 31.096 15.0322 31.096C12.8242 31.096 10.5842 30.568 8.31219 29.512C6.07219 28.456 4.34419 27.176 3.12819 25.672C2.48819 24.744 1.86419 23.416 1.25619 21.688C0.680188 19.928 0.392188 18.504 0.392188 17.416C0.392188 14.632 0.808188 11.992 1.64019 9.496C2.50419 6.968 3.78419 4.952 5.48019 3.448C6.60019 2.424 8.21619 1.656 10.3282 1.144C12.4402 0.631999 14.3762 0.375999 16.1362 0.375999C18.2802 0.375999 19.9602 0.679999 21.1762 1.288C22.4242 1.864 23.6562 2.888 24.8722 4.36ZM50.3879 15.592C50.6439 16.04 50.8519 16.696 51.0119 17.56C51.1719 18.392 51.2519 19.144 51.2519 19.816C51.2519 21.064 50.9799 22.84 50.4359 25.144C48.2279 29.176 44.9639 31.192 40.6439 31.192C39.0439 31.192 37.4119 30.664 35.7479 29.608C34.0839 28.552 32.9319 27.336 32.2919 25.96C31.4279 23.208 30.9959 21.464 30.9959 20.728C30.9959 19.448 31.2679 18.088 31.8119 16.648C32.3879 15.208 33.1079 13.96 33.9719 12.904C34.5159 12.168 35.4919 11.544 36.8999 11.032C38.3079 10.488 39.5879 10.216 40.7399 10.216C42.9799 10.216 44.8839 10.648 46.4519 11.512C48.0199 12.344 49.3319 13.704 50.3879 15.592ZM46.2119 23.32C46.3719 22.904 46.4519 21.832 46.4519 20.104C46.4519 19.176 46.2759 18.264 45.9239 17.368C45.6039 16.472 45.1239 15.704 44.4839 15.064C44.4199 15 44.2439 14.904 43.9559 14.776C43.6679 14.616 43.2679 14.472 42.7559 14.344C42.2759 14.184 41.7159 14.104 41.0759 14.104C39.2839 14.104 37.9719 14.824 37.1399 16.264C36.3079 17.704 35.8919 19.336 35.8919 21.16C35.8919 21.48 35.9719 22.088 36.1319 22.984C36.3239 23.88 36.4839 24.44 36.6119 24.664C36.7079 24.888 36.9479 25.208 37.3319 25.624C37.7479 26.008 38.2439 26.36 38.8199 26.68C39.4279 26.968 40.0519 27.112 40.6919 27.112C42.1319 27.112 43.2839 26.776 44.1479 26.104C45.0119 25.4 45.6999 24.472 46.2119 23.32ZM57.0464 14.296C56.7584 14.296 56.4864 14.328 56.2304 14.392C55.9744 14.424 55.7184 14.44 55.4624 14.44C55.1104 14.44 54.7744 14.28 54.4544 13.96C54.1664 13.64 54.0224 13.352 54.0224 13.096C54.0224 12.264 54.4384 11.624 55.2704 11.176C56.1024 10.696 56.9504 10.456 57.8144 10.456C58.5504 10.456 59.3024 10.712 60.0704 11.224C60.8704 11.704 61.4624 12.328 61.8464 13.096C62.6784 12.104 63.7024 11.384 64.9184 10.936C66.1344 10.488 67.3984 10.264 68.7104 10.264C70.1824 10.264 71.5424 10.728 72.7904 11.656C74.0704 12.584 75.0784 13.768 75.8144 15.208C76.5504 16.616 76.9184 18.024 76.9184 19.432C76.9184 20.808 76.7744 22.04 76.4864 23.128C76.1984 24.184 75.6864 25.256 74.9504 26.344C74.1184 27.496 72.9984 28.44 71.5904 29.176C70.2144 29.912 68.5664 30.28 66.6464 30.28C66.1344 30.28 65.5104 30.152 64.7744 29.896C64.0384 29.608 63.4304 29.304 62.9504 28.984C62.7264 31.16 62.6144 33.048 62.6144 34.648C62.6144 35.608 62.6624 36.52 62.7584 37.384C62.8224 38.408 62.8544 39.144 62.8544 39.592C62.8544 40.296 62.6144 40.808 62.1344 41.128C61.6544 41.48 61.1264 41.656 60.5504 41.656C59.3984 41.656 58.6304 41.336 58.2464 40.696C57.8944 40.088 57.7184 39.208 57.7184 38.056C57.8464 35.304 58.0064 32.76 58.1984 30.424C58.3904 27.544 58.4864 23.096 58.4864 17.08C58.4864 16.504 58.3744 15.896 58.1504 15.256C57.9264 14.616 57.5584 14.296 57.0464 14.296ZM63.1424 24.232C63.3024 24.84 63.7504 25.352 64.4864 25.768C65.2544 26.152 65.9424 26.344 66.5504 26.344C68.3744 26.344 69.7344 25.848 70.6304 24.856C71.3024 24.152 71.7344 23.464 71.9264 22.792C72.1504 22.12 72.2624 21.048 72.2624 19.576C72.2624 18.424 72.0384 17.464 71.5904 16.696C71.1424 15.896 70.5984 15.32 69.9584 14.968C69.3184 14.584 68.7104 14.392 68.1344 14.392C66.8224 14.392 65.7504 14.792 64.9184 15.592C64.1184 16.36 63.6064 17.416 63.3824 18.76C63.2224 19.816 63.1424 21.64 63.1424 24.232ZM86.5807 40.792C84.8207 40.792 83.5407 40.472 82.7407 39.832C81.9727 39.224 81.5887 38.552 81.5887 37.816C81.5887 36.696 82.1167 36.136 83.1727 36.136C83.4927 36.136 83.9087 36.232 84.4207 36.424C84.9327 36.648 85.4127 36.76 85.8607 36.76C86.5647 36.76 87.1407 36.296 87.5887 35.368C88.0367 34.44 88.4847 32.936 88.9327 30.856C87.9407 29.704 86.7247 27.88 85.2847 25.384C83.8767 22.888 82.6607 20.44 81.6367 18.04C80.6127 15.608 80.1007 13.88 80.1007 12.856C80.1007 12.056 80.3727 11.464 80.9167 11.08C81.4927 10.696 82.1487 10.504 82.8847 10.504C83.4607 10.504 83.9087 10.616 84.2287 10.84C84.5487 11.032 84.7727 11.4 84.9007 11.944C85.6687 14.664 86.4847 17.048 87.3487 19.096C88.2447 21.144 89.3807 23.368 90.7567 25.768C91.3007 24.52 92.0207 22.392 92.9167 19.384C93.9087 16.024 94.7407 13.64 95.4127 12.232C95.7007 11.656 96.0527 11.192 96.4687 10.84C96.9167 10.488 97.4127 10.312 97.9567 10.312C98.5007 10.312 99.0767 10.52 99.6847 10.936C100.325 11.32 100.645 11.784 100.645 12.328C100.645 12.648 100.533 13.032 100.309 13.48C99.0607 16.36 97.9567 19.08 96.9967 21.64C96.0687 24.168 95.1727 26.952 94.3087 29.992C93.7967 31.688 93.2527 33.304 92.6767 34.84C92.1327 36.376 91.7487 37.32 91.5247 37.672C90.8847 38.568 90.1647 39.304 89.3647 39.88C88.5647 40.488 87.6367 40.792 86.5807 40.792Z" fill="#5E9FF2"/>
<path d="M126.313 22.744C126.313 24.248 125.993 25.464 125.353 26.392C124.713 27.32 123.609 28.232 122.041 29.128C120.985 29.768 119.769 30.264 118.393 30.616C117.017 30.936 115.625 31.096 114.217 31.096C113.353 31.096 112.345 30.936 111.193 30.616C110.073 30.264 109.161 29.928 108.457 29.608L107.641 28.888C106.201 27.704 105.193 26.76 104.617 26.056C104.073 25.32 103.801 24.424 103.801 23.368C103.801 22.536 103.993 21.912 104.377 21.496C104.761 21.08 105.385 20.872 106.249 20.872C106.697 20.872 107.113 21.016 107.497 21.304C107.881 21.592 108.217 21.992 108.505 22.504C109.305 23.912 110.249 24.952 111.337 25.624C112.457 26.264 113.769 26.584 115.273 26.584C116.681 26.584 118.105 26.152 119.545 25.288C120.729 24.552 121.321 23.832 121.321 23.128C121.321 21.88 120.761 20.84 119.641 20.008C118.553 19.176 116.985 18.424 114.937 17.752C113.689 17.304 111.817 16.472 109.321 15.256C107.625 14.424 106.361 13.4 105.529 12.184C104.697 10.968 104.281 9.688 104.281 8.344C104.281 7.128 104.697 5.944 105.529 4.792C106.393 3.608 107.433 2.728 108.649 2.152C109.289 1.832 110.313 1.496 111.721 1.144C113.129 0.759999 114.185 0.568 114.889 0.568C116.201 0.568 117.337 0.728 118.297 1.048C119.257 1.336 120.201 1.752 121.129 2.296C122.537 3.096 123.577 3.816 124.249 4.456C124.921 5.096 125.257 5.896 125.257 6.856C125.257 7.432 125.033 7.944 124.585 8.392C124.169 8.84 123.433 9.064 122.377 9.064C122.121 9.064 121.865 8.952 121.609 8.728C121.353 8.504 121.033 8.168 120.649 7.72C120.137 7.048 119.641 6.6 119.161 6.376C119.033 6.344 118.505 6.136 117.577 5.752C116.681 5.368 115.561 5.176 114.217 5.176C112.937 5.176 111.801 5.48 110.809 6.088C109.817 6.664 109.321 7.512 109.321 8.632C109.321 9.752 110.329 10.664 112.345 11.368C114.489 12.2 116.265 12.92 117.673 13.528C119.113 14.136 120.505 14.856 121.849 15.688C123.385 16.616 124.505 17.592 125.209 18.616C125.945 19.64 126.313 21.016 126.313 22.744ZM130.898 14.392C130.45 14.328 130.082 14.136 129.794 13.816C129.538 13.496 129.41 13.112 129.41 12.664C129.41 12.44 129.458 12.2 129.554 11.944C129.682 11.688 129.858 11.464 130.082 11.272C130.498 10.92 131.058 10.584 131.762 10.264C132.498 9.976 133.026 9.624 133.346 9.208C133.666 8.792 133.826 8.008 133.826 6.856C133.826 6.376 133.794 5.96 133.73 5.608C133.698 5.256 133.682 4.984 133.682 4.792C133.682 4.088 133.938 3.56 134.45 3.208C134.962 2.856 135.554 2.68 136.226 2.68C137.058 2.68 137.618 2.888 137.906 3.304C138.226 3.72 138.386 4.488 138.386 5.608C138.386 6.696 138.338 7.64 138.242 8.44C138.146 9.208 137.938 9.896 137.618 10.504C138.066 10.504 138.802 10.472 139.826 10.408C141.234 10.344 142.21 10.312 142.754 10.312C143.298 10.312 143.778 10.456 144.194 10.744C144.61 11 144.818 11.368 144.818 11.848C144.818 12.52 144.674 13.016 144.386 13.336C144.098 13.656 143.682 13.864 143.138 13.96C141.826 14.312 139.97 14.52 137.57 14.584C137.506 15.832 137.474 17.192 137.474 18.664C137.474 21.128 137.618 23.016 137.906 24.328C138.098 25.352 138.418 26.104 138.866 26.584C139.346 27.032 140.05 27.256 140.978 27.256C141.458 27.256 141.842 27.192 142.13 27.064C142.45 26.936 142.626 26.856 142.658 26.824C143.042 26.6 143.394 26.488 143.714 26.488C144.162 26.488 144.482 26.632 144.674 26.92C144.898 27.208 145.01 27.592 145.01 28.072C145.01 28.968 144.53 29.72 143.57 30.328C142.61 30.904 141.378 31.192 139.874 31.192C138.178 31.192 136.738 30.696 135.554 29.704C134.402 28.68 133.714 27.336 133.49 25.672C133.17 24.168 133.01 22.056 133.01 19.336C133.01 18.152 133.074 16.568 133.202 14.584L130.898 14.392ZM167.089 31.192C166.001 31.192 165.169 31.032 164.593 30.712C164.017 30.36 163.393 29.72 162.721 28.792C161.889 29.528 160.641 30.12 158.977 30.568C157.345 31.016 155.937 31.24 154.753 31.24C152.801 31.24 151.217 30.712 150.001 29.656C148.817 28.568 148.225 26.984 148.225 24.904C148.225 24.008 148.465 23.192 148.945 22.456C149.457 21.688 150.113 21.016 150.913 20.44C151.809 19.832 152.865 19.352 154.081 19C155.329 18.648 156.465 18.472 157.489 18.472C159.217 18.472 160.753 18.632 162.097 18.952V18.904C162.097 17.176 161.665 15.992 160.801 15.352C159.969 14.68 158.625 14.344 156.769 14.344C155.585 14.344 154.561 14.872 153.697 15.928C153.377 16.344 152.705 16.552 151.681 16.552C151.169 16.552 150.785 16.344 150.529 15.928C150.305 15.48 150.193 15.032 150.193 14.584C150.193 13.656 150.577 12.856 151.345 12.184C152.145 11.512 153.105 11.016 154.225 10.696C155.345 10.344 156.385 10.168 157.345 10.168C158.273 10.168 159.377 10.36 160.657 10.744C161.937 11.128 162.977 11.64 163.777 12.28C164.737 13.112 165.473 14.088 165.985 15.208C166.529 16.296 166.801 17.496 166.801 18.808C166.801 19.224 166.769 19.848 166.705 20.68C166.641 21.64 166.609 22.424 166.609 23.032C166.609 23.32 166.577 23.688 166.513 24.136C166.449 24.712 166.417 25.192 166.417 25.576C166.417 25.992 166.545 26.392 166.801 26.776C167.057 27.16 167.409 27.48 167.857 27.736C168.273 27.96 168.545 28.2 168.673 28.456C168.801 28.712 168.865 29 168.865 29.32C168.865 29.64 168.657 30.04 168.241 30.52C167.857 30.968 167.473 31.192 167.089 31.192ZM157.489 22.024C156.241 22.024 155.137 22.264 154.177 22.744C153.217 23.224 152.737 24.072 152.737 25.288C152.737 25.896 152.945 26.408 153.361 26.824C153.809 27.24 154.289 27.448 154.801 27.448C156.177 27.448 157.329 27.304 158.257 27.016C159.185 26.728 160.305 26.2 161.617 25.432C161.777 24.92 161.873 24.2 161.905 23.272C161.905 22.92 161.921 22.648 161.953 22.456C160.225 22.168 158.737 22.024 157.489 22.024ZM179.578 29.08C179.578 29.624 179.37 30.104 178.954 30.52C178.538 30.936 178.026 31.144 177.418 31.144C176.458 31.144 175.754 30.968 175.306 30.616C174.858 30.232 174.634 29.544 174.634 28.552C174.634 27.368 174.602 25.816 174.538 23.896C174.474 22.296 174.442 20.952 174.442 19.864C174.442 19.352 174.474 18.68 174.538 17.848C174.602 17.08 174.634 16.504 174.634 16.12C174.538 15.512 174.298 15.016 173.914 14.632C173.53 14.216 173.034 14.008 172.426 14.008C172.138 14.008 171.898 13.88 171.706 13.624C171.514 13.336 171.418 13.048 171.418 12.76C171.418 12.024 171.706 11.464 172.282 11.08C172.89 10.696 173.61 10.504 174.442 10.504C176.17 10.504 177.37 11.528 178.042 13.576C178.874 12.616 179.818 11.848 180.874 11.272C181.962 10.664 183.002 10.36 183.994 10.36C185.178 10.36 186.25 10.68 187.21 11.32C188.202 11.96 188.698 12.824 188.698 13.912C188.698 14.52 188.426 15.144 187.882 15.784C187.37 16.424 186.842 16.744 186.298 16.744C186.01 16.744 185.754 16.68 185.53 16.552C185.338 16.392 185.098 16.168 184.81 15.88C184.49 15.56 184.218 15.336 183.994 15.208C183.77 15.048 183.514 14.968 183.226 14.968C182.714 14.968 182.234 15.048 181.786 15.208C181.338 15.368 181.034 15.56 180.874 15.784C180.362 16.584 179.978 17.304 179.722 17.944C179.498 18.584 179.386 19.272 179.386 20.008C179.386 20.552 179.37 20.984 179.338 21.304L179.29 24.04C179.29 24.456 179.306 24.92 179.338 25.432C179.37 25.944 179.402 26.328 179.434 26.584C179.53 27.448 179.578 28.28 179.578 29.08Z" fill="#45BF86"/>
</svg>
